<?xml version="1.0" encoding="utf-8"?>
<!-- Generator: Adobe Illustrator 16.0.0, SVG Export Plug-In . SVG Version: 6.00 Build 0)  -->
<!DOCTYPE svg PUBLIC "-//W3C//DTD SVG 1.1//EN" "http://www.w3.org/Graphics/SVG/1.1/DTD/svg11.dtd">
<svg version="1.1" id="Layer_1" xmlns="http://www.w3.org/2000/svg" xmlns:xlink="http://www.w3.org/1999/xlink" x="0px" y="0px"
	 width="400.336px" height="103.144px" viewBox="0 0 400.336 103.144" enable-background="new 0 0 400.336 103.144"
	 xml:space="preserve">
<g>
	<path fill="#575756" d="M7.993,55.415v24.593h-8.3V23.136h28.743v7.608H7.993v17.062h20.443v7.608L7.993,55.415L7.993,55.415z"/>
	<path fill="#575756" d="M43.193,80.007V23.136h8.3v56.871H43.193z"/>
	<path fill="#575756" d="M105.213,80.007l-28.128-43.96h-0.154v43.96h-8.3V23.136H77.7l27.667,43.269h0.154V23.136h8.3v56.871
		H105.213z"/>
	<path fill="#575756" d="M168.081,80.007l-6.302-16.754h-20.442l-6.302,16.754h-8.761l21.596-56.871h7.455l21.596,56.871H168.081z
		 M151.711,33.896h-0.154l-7.301,21.748h14.679L151.711,33.896z"/>
	<path fill="#575756" d="M225.875,80.007l-28.128-43.96h-0.154v43.96h-8.3V23.136h9.068l27.667,43.269h0.154V23.136h8.299v56.871
		H225.875z"/>
	<path fill="#575756" d="M294.275,37.661c-4.227-4.918-9.299-7.993-15.984-7.993c-11.989,0-21.135,9.914-21.135,21.75
		c0,11.527,9.146,22.056,20.98,22.056c5.995,0,11.682-2.997,15.524-7.531h10.221c-5.379,9.452-14.909,15.141-25.823,15.141
		c-16.216,0-29.203-13.68-29.203-29.742c0-16.293,13.064-29.281,29.28-29.281c6.071,0,12.45,1.998,17.369,5.533
		c3.996,2.844,6.378,5.841,8.761,10.068H294.275z"/>
	<path fill="#575756" d="M316.72,80.007V23.136h30.664v7.608h-22.363v16.754h22.363v7.608h-22.363v17.292h22.363v7.607
		L316.72,80.007L316.72,80.007z"/>
	<path fill="#575756" d="M389.577,57.72c-1.691,0.614-3.689,1.076-5.534,1.076l15.909,21.211h-10.375l-18.752-26.36h-0.153v26.36
		h-8.3V23.136h17.599c5.38,0,11.145,0.846,15.141,4.766c3.611,3.458,5.226,8.53,5.226,13.448
		C400.336,49.036,396.955,55.107,389.577,57.72z M379.433,30.745h-8.761v21.75h5.688c7.378,0,15.678-2.075,15.678-11.145
		C392.037,34.126,386.042,30.745,379.433,30.745z"/>
</g>
<g>
	<path fill="#575756" d="M400.336,103.144H0v-8.3h400.336V103.144z"/>
	<path fill="#575756" d="M400.336,8.3H0V0h400.336V8.3z"/>
</g>
</svg>
