<?xml version="1.0" encoding="utf-8"?>
<!-- Generator: Adobe Illustrator 16.0.0, SVG Export Plug-In . SVG Version: 6.00 Build 0)  -->
<!DOCTYPE svg PUBLIC "-//W3C//DTD SVG 1.1//EN" "http://www.w3.org/Graphics/SVG/1.1/DTD/svg11.dtd">
<svg version="1.1" id="Layer_1" xmlns="http://www.w3.org/2000/svg" xmlns:xlink="http://www.w3.org/1999/xlink" x="0px" y="0px"
	 width="400.336px" height="103.144px" viewBox="0 0 400.336 103.144" enable-background="new 0 0 400.336 103.144"
	 xml:space="preserve">
<g>
	<path fill="#FFFFFF" d="M7.993,55.415v24.593h-8.3V23.136h28.743v7.608H7.993v17.062h20.443v7.608H7.993z"/>
	<path fill="#FFFFFF" d="M43.193,80.007V23.136h8.3v56.871H43.193z"/>
	<path fill="#FFFFFF" d="M105.213,80.007l-28.128-43.96h-0.154v43.96h-8.3V23.136H77.7l27.667,43.268h0.154V23.136h8.3v56.871
		H105.213z"/>
	<path fill="#FFFFFF" d="M168.081,80.007l-6.302-16.754h-20.442l-6.302,16.754h-8.761l21.596-56.871h7.455l21.596,56.871H168.081z
		 M151.711,33.896h-0.154l-7.301,21.749h14.679L151.711,33.896z"/>
	<path fill="#FFFFFF" d="M225.875,80.007l-28.128-43.96h-0.154v43.96h-8.3V23.136h9.068l27.667,43.268h0.153V23.136h8.3v56.871
		H225.875z"/>
	<path fill="#FFFFFF" d="M294.276,37.661c-4.227-4.918-9.299-7.993-15.985-7.993c-11.989,0-21.135,9.914-21.135,21.75
		c0,11.527,9.146,22.056,20.981,22.056c5.995,0,11.682-2.997,15.524-7.532h10.221c-5.379,9.453-14.909,15.141-25.823,15.141
		c-16.216,0-29.204-13.68-29.204-29.742c0-16.293,13.065-29.281,29.281-29.281c6.071,0,12.45,1.998,17.369,5.533
		c3.996,2.844,6.378,5.841,8.761,10.068H294.276z"/>
	<path fill="#FFFFFF" d="M316.72,80.007V23.136h30.664v7.608H325.02v16.754h22.364v7.608H325.02v17.292h22.364v7.608H316.72z"/>
	<path fill="#FFFFFF" d="M389.577,57.72c-1.691,0.614-3.689,1.076-5.534,1.076l15.909,21.211h-10.375l-18.752-26.361h-0.153v26.361
		h-8.3V23.136h17.599c5.38,0,11.144,0.845,15.14,4.765c3.612,3.458,5.226,8.531,5.226,13.449
		C400.336,49.036,396.955,55.107,389.577,57.72z M379.433,30.745h-8.761v21.75h5.687c7.378,0,15.678-2.075,15.678-11.144
		C392.037,34.126,386.042,30.745,379.433,30.745z"/>
</g>
<g>
	<path fill="#FFFFFF" d="M400.336,103.144H0v-8.3h400.336V103.144z"/>
	<path fill="#FFFFFF" d="M400.336,8.3H0V0h400.336V8.3z"/>
</g>
</svg>
